Coordinates
version=1
nRows=26
nColumns=24
inDegrees=yes

Units are S.I. units (second, meters, Newtons, ...)
Angles are in degrees.

endheader
time	pelvis_tilt	pelvis_list	pelvis_rotation	pelvis_tx	pelvis_ty	pelvis_tz	hip_flexion_r	hip_adduction_r	hip_rotation_r	knee_angle_r	ankle_angle_r	subtalar_angle_r	mtp_angle_r	hip_flexion_l	hip_adduction_l	hip_rotation_l	knee_angle_l	ankle_angle_l	subtalar_angle_l	mtp_angle_l	lumbar_extension	lumbar_bending	lumbar_rotation
      4.48000000	    -14.24021300	     -0.62340271	     -5.15790303	      0.05995114	      0.94638552	      0.04707752	      8.36645554	      5.38000388	      6.66430797	    -17.59035081	     14.57843994	      0.00000000	      0.00000000	     36.62308901	     -4.27532559	     -4.29657177	     -4.12433797	     -3.12823086	      0.00000000	      0.00000000	      7.92370578	      1.43957898	      3.30715524
      4.49000000	    -14.19596561	     -0.40282501	     -5.28918087	      0.06050680	      0.94563729	      0.04597078	      7.74382972	      5.01188017	      6.86536786	    -17.42610643	     14.56490991	      0.00000000	      0.00000000	     36.65704524	     -4.01148843	     -4.14934575	     -4.40110283	     -3.18806548	      0.00000000	      0.00000000	      7.88203640	      1.27411450	      3.29469650
      4.50000000	    -14.21209132	     -0.28958209	     -5.43181926	      0.06113469	      0.94476112	      0.04477907	      7.26277156	      4.76403207	      6.96623224	    -17.45235170	     14.52849589	      0.00000000	      0.00000000	     36.73507953	     -3.84199301	     -4.04891815	     -4.77760635	     -3.27456936	      0.00000000	      0.00000000	      7.90951545	      1.25295696	      3.32139155
      4.51000000	    -14.23235793	     -0.17636758	     -5.54461041	      0.06199932	      0.94384403	      0.04354884	      6.78554338	      4.51397132	      7.08639461	    -17.50542777	     14.47263265	      0.00000000	      0.00000000	     36.81508736	     -3.65397319	     -3.96715248	     -5.29844941	     -3.38320213	      0.00000000	      0.00000000	      7.97301584	      1.21689187	      3.31470527
      4.52000000	    -14.24365933	     -0.04651155	     -5.63433776	      0.06301715	      0.94294170	      0.04227682	      6.30191401	      4.24766517	      7.21475255	    -17.57315287	     14.38766702	      0.00000000	      0.00000000	     36.91050424	     -3.43249548	     -3.88542720	     -5.99881169	     -3.52627294	      0.00000000	      0.00000000	      8.04582024	      1.15009350	      3.29454806
      4.53000000	    -14.25822732	      0.08441843	     -5.69476604	      0.06422743	      0.94202357	      0.04096754	      5.83163463	      3.97879271	      7.32837471	    -17.67762314	     14.27162621	      0.00000000	      0.00000000	     37.01089359	     -3.19174118	     -3.79924605	     -6.81602837	     -3.68372463	      0.00000000	      0.00000000	      8.15075669	      1.06711148	      3.24530403
      4.54000000	    -14.28113037	      0.22904608	     -5.72050967	      0.06558182	      0.94113638	      0.03956539	      5.38452235	      3.69293248	      7.43092681	    -17.82162514	     14.11560701	      0.00000000	      0.00000000	     37.13045637	     -2.91285590	     -3.66899162	     -7.75152883	     -3.86058370	      0.00000000	      0.00000000	      8.28459767	      0.95897954	      3.18349206
      4.55000000	    -14.31408910	      0.38870982	     -5.72368786	      0.06710872	      0.94030803	      0.03812748	      4.97237762	      3.39475724	      7.53256825	    -18.01771147	     13.92545209	      0.00000000	      0.00000000	     37.24363979	     -2.60454900	     -3.47563428	     -8.72574038	     -4.04807698	      0.00000000	      0.00000000	      8.45635595	      0.82932137	      3.11187793
      4.56000000	    -14.46121275	      0.48283451	     -5.48509768	      0.06873206	      0.93933492	      0.03628627	      4.69261735	      3.14691736	      7.23962837	    -18.25265779	     13.57893748	      0.00000000	      0.00000000	     37.68906373	     -2.20544657	     -3.05556558	    -10.17710256	     -3.86645269	      0.00000000	      0.00000000	      8.77707927	      0.74287283	      2.82164224
      4.57000000	    -14.47817747	      0.71106270	     -5.42740730	      0.07044867	      0.93876824	      0.03469335	      4.33824146	      2.79471299	      7.49838680	    -18.59410998	     13.28528532	      0.00000000	      0.00000000	     37.77885962	     -1.77586370	     -2.65173325	    -11.23369967	     -4.09507903	      0.00000000	      0.00000000	      8.96424426	      0.51214668	      2.77995623
      4.58000000	    -14.51638195	      0.94765811	     -5.23409953	      0.07229486	      0.93828549	      0.03289687	      4.05702568	      2.42139452	      7.46938559	    -19.03579830	     12.85237354	      0.00000000	      0.00000000	     37.97119005	     -1.25615732	     -2.16832177	    -12.49095614	     -4.14333005	      0.00000000	      0.00000000	      9.19840646	      0.24383804	      2.62014220
      4.59000000	    -14.70784786	      1.08226368	     -4.78239308	      0.07424151	      0.93771216	      0.03058576	      3.95761477	      2.13195119	      6.99934476	    -19.51956479	     12.21190023	      0.00000000	      0.00000000	     38.43366597	     -0.63552358	     -1.24973022	    -14.01086685	     -3.69624209	      0.00000000	      0.00000000	      9.62327337	      0.07925735	      2.23672590
      4.60000000	    -14.66764186	      1.37222460	     -4.59219127	      0.07618787	      0.93778956	      0.02869802	      3.72146163	      1.72485038	      7.25073533	    -20.16628942	     11.65453965	      0.00000000	      0.00000000	     38.44258885	     -0.03006707	     -0.66004909	    -15.12750581	     -3.75005534	      0.00000000	      0.00000000	      9.76861631	     -0.25070380	      2.16285395
      4.61000000	    -14.71899871	      1.61415803	     -4.10171903	      0.07833485	      0.93785562	      0.02624681	      3.64848438	      1.30465790	      6.66235393	    -20.92917139	     10.63741310	      0.00000000	      0.00000000	     38.62012756	      0.74727306	      0.25451556	    -16.45111838	     -3.14938175	      0.00000000	      0.00000000	     10.06212260	     -0.56413378	      1.82027602
      4.62000000	    -14.65739682	      1.88518344	     -3.76181853	      0.08045478	      0.93833790	      0.02399284	      3.54891431	      0.88257578	      6.49212954	    -21.82692062	      9.61570989	      0.00000000	      0.00000000	     38.55281366	      1.46864023	      1.05601828	    -17.54469997	     -2.79604440	      0.00000000	      0.00000000	     10.21117409	     -0.89019116	      1.67897475
      4.63000000	    -14.56506364	      2.16834578	     -3.36630613	      0.08265333	      0.93907184	      0.02163847	      3.50128763	      0.43281285	      6.19911244	    -22.84434405	      8.32472377	      0.00000000	      0.00000000	     38.35250881	      2.23844172	      1.80620311	    -18.47548511	     -2.29646056	      0.00000000	      0.00000000	     10.33012486	     -1.24547408	      1.52840744
      4.64000000	    -14.40354330	      2.45543742	     -3.07615947	      0.08482491	      0.94008750	      0.01943139	      3.51467298	     -0.00359441	      6.11626161	    -24.07195077	      7.00395665	      0.00000000	      0.00000000	     37.99159422	      2.94048887	      2.43004774	    -19.25207342	     -1.92067472	      0.00000000	      0.00000000	     10.37222423	     -1.58085149	      1.42293209
      4.65000000	    -14.21449971	      2.69726407	     -2.75881545	      0.08690619	      0.94126654	      0.01740960	      3.63535882	     -0.35722273	      6.09946920	    -25.51794923	      5.62447580	      0.00000000	      0.00000000	     37.50895493	      3.57747437	      2.88978141	    -19.84941581	     -1.55011272	      0.00000000	      0.00000000	     10.36982857	     -1.90260937	      1.26592577
      4.66000000	    -14.00255663	      3.00888574	     -2.52694540	      0.08908033	      0.94262873	      0.01507122	      3.87080592	     -0.90882122	      5.60722529	    -27.06307639	      3.47653673	      0.00000000	      0.00000000	     36.87689181	      4.26004085	      3.28071032	    -20.25186704	     -0.87744882	      0.00000000	      0.00000000	     10.36058442	     -2.23128384	      1.29314257
      4.67000000	    -13.78482074	      3.29863657	     -2.26758080	      0.09141714	      0.94418096	      0.01290228	      4.07815541	     -1.43633406	      5.21496498	    -28.48816364	      0.92639457	      0.00000000	      0.00000000	     36.09483376	      4.88208378	      3.42361456	    -20.38964540	     -0.21755257	      0.00000000	      0.00000000	     10.37292278	     -2.56193056	      1.22543846
      4.68000000	    -13.51919334	      3.52884946	     -2.13536390	      0.09333676	      0.94575038	      0.01095008	      4.48831552	     -1.88488903	      4.93383896	    -30.28951239	     -1.53482205	      0.00000000	      0.00000000	     35.24083061	      5.35542173	      3.43189248	    -20.44533337	      0.29462863	      0.00000000	      0.00000000	     10.26892716	     -2.79879589	      1.22335405
      4.69000000	    -13.26578137	      3.73366135	     -2.06444179	      0.09509567	      0.94730703	      0.00918182	      5.06610593	     -2.31492611	      4.63974552	    -32.26836533	     -4.14577660	      0.00000000	      0.00000000	     34.34407817	      5.73869020	      3.27375969	    -20.37411689	      0.79009392	      0.00000000	      0.00000000	     10.16412851	     -3.00596921	      1.25735543
      4.70000000	    -13.02517039	      3.93157548	     -2.04658266	      0.09654161	      0.94876744	      0.00749840	      5.81039679	     -2.75332045	      4.33650671	    -34.40047140	     -6.82534465	      0.00000000	      0.00000000	     33.45422063	      6.07051401	      3.02777448	    -20.26648339	      1.27861307	      0.00000000	      0.00000000	     10.03338786	     -3.19017419	      1.29044631
      4.71000000	    -12.83343255	      4.10805064	     -2.07376217	      0.09783996	      0.95016178	      0.00602158	      6.69060614	     -3.16440119	      4.07011169	    -36.54842557	     -9.72554339	      0.00000000	      0.00000000	     32.54296301	      6.31990144	      2.57397920	    -19.97611673	      1.69696182	      0.00000000	      0.00000000	      9.95281154	     -3.34809573	      1.30189288
      4.72000000	    -12.64571428	      4.28445255	     -2.10863098	      0.09878890	      0.95140604	      0.00460557	      7.71106934	     -3.58659440	      3.75570714	    -38.84170274	    -12.38858149	      0.00000000	      0.00000000	     31.69229145	      6.56461751	      2.15999227	    -19.76813144	      2.15278491	      0.00000000	      0.00000000	      9.82662422	     -3.50662300	      1.26313520
      4.73000000	    -12.49122678	      4.42894732	     -2.16199744	      0.09944616	      0.95250809	      0.00334944	      8.84938249	     -3.96792686	      3.43586529	    -41.16143564	    -14.84547421	      0.00000000	      0.00000000	     30.88606232	      6.75460523	      1.74046756	    -19.53741749	      2.54373861	      0.00000000	      0.00000000	      9.70557668	     -3.63864161	      1.20979580
